<svg id="Layer_2" data-name="Layer 2" xmlns="http://www.w3.org/2000/svg" viewBox="0 0 1231.8 456.16"><defs><style>.cls-1{fill:#ffb99c;}.cls-2{fill:#80b500;}.cls-3{fill:#abbcce;}.cls-4{fill:#e19276;}.cls-5{fill:#fff;}.cls-6{fill:#3f3b3b;}.cls-7{font-size:212.42px;fill:#3e3a3a;font-family:Beathy;}.cls-8{letter-spacing:-0.16em;}.cls-9{letter-spacing:0.02em;}</style></defs><title>bLAC</title><path class="cls-1" d="M169.65,387.87a41.17,41.17,0,0,0-8-3.67,51.65,51.65,0,0,0-10.83-2.34,32.83,32.83,0,0,0-16.58,15.69c2.1,3.11,12.49,16.79,31.59,15.14,12.25-1.06,18.83-.46,22.23.25a49.05,49.05,0,0,0-8.58-16.55A37.63,37.63,0,0,0,169.65,387.87ZM112.16,211H112c-4.27.06-8.32,2.19-12,6.34a17.27,17.27,0,0,0-.85,22.74,17.66,17.66,0,0,0,5.26,4.5,21.11,21.11,0,0,0,15.84-6.08c7.39-7.16,3.32-19.43,1-24.83A18.5,18.5,0,0,0,112.16,211Zm10.59,20.17c-2.72-.91-3.85,2.72-9.16,1.82s-.59-7.49-5.13-6.36-.68,6.36-.68,6.36c-3.63-.46-5.67-8.4,1.14-9.36S122.75,231.2,122.75,231.2Zm181.34,1.48a5.27,5.27,0,0,1-2.1-4.19,5,5,0,0,1,1-3c-1.53-9.46-3.47-19.56-5.92-30.06a20.1,20.1,0,0,1-11.9-19.77,34.71,34.71,0,0,1-13.1-25.1c-10.85-1.95-27.68-3.83-50.28-3a180.31,180.31,0,0,0-57.5,11.41c.35,7.51-.06,26.18-11.74,35.47,0,0,.54,15.79-10.91,21.47,0,0-7.84,53.23-3.91,68.35,3.18,12.22,28.47,46.87,38.06,59.72a114.12,114.12,0,0,0,48.33,17.64c6-1.83,48.25-16.12,80.62-63.24,3.47-5,4-11.38,3.9-15.81A448,448,0,0,0,304.09,232.68Zm-43.42-48.43c4,0,7.25,5.48,7.25,12.25s-3.25,12.24-7.25,12.24-7.26-5.48-7.26-12.24S256.66,184.25,260.67,184.25Zm-79.39,0c4,0,7.25,5.48,7.25,12.25s-3.25,12.24-7.25,12.24S174,203.26,174,196.5,177.27,184.25,181.28,184.25Zm25.68,145s22.34,6.05,32.8-1.82C239.76,327.45,228.46,341.06,207,329.27Zm71.82-38.41c-17.57,1.81-29.47-10.59-29.47-10.59l11.36,16.94a27.82,27.82,0,0,1-12.55-.08c-2,9.44-7.23,18.24-18.28,20.84a28,28,0,0,1-6.41.78,20.57,20.57,0,0,1-13.7-4.94c-4.64-4-7.57-9.71-9.39-15.93a32.38,32.38,0,0,1-7.27-.67l5.51-7.35c-.23-1.45-.41-2.9-.55-4.33a44.57,44.57,0,0,1-25.22,5.33c-19.66-1.82-25.41-13.31-25.41-13.31s9.08,5.44,20.87-13.42c8.36-13.36,25.2-18.35,34.32-20.13a32.67,32.67,0,0,1-3.42-2.78c-5-5.85-7-15.18-7-15.18l12.56,9.2c9.83,9.13,27,10.81,36.26,6.61,3.82-1.73,5.71-4.13,5.62-7.13-.39-13.86-14.25-25.43-14.39-25.55L230.72,208v-30l8.17,21.32v5c4.15,3.86,15.46,15.68,15.88,30.3a14.12,14.12,0,0,1-3.18,9.39c8,1.67,23.6,6.57,31.25,20.25,10.54,18.86,18.66,13.42,18.66,13.42S296.36,289,278.78,290.86Zm45.54-88.48c-7.18-5.86-14.4,0-16.84,2.41.72,3.5,1.39,7,2,10.34,2.68-2.25,6.59-4.71,10.42-4.17,5.29.75,5.23,5.71,3.24,8.1,1.8-.26,3.73-.5,5.77-.74.21-1,.56-2.44,1.07-4.24A15.71,15.71,0,0,0,324.32,202.38Zm104.43,44.47-9.13-4.3h-1.74c-21.95,0-42.93-.56-60.94-1.61a4.67,4.67,0,0,0,2,3.55c2.69,1.83,7.91,1.37,11.2-.12,8.28-3.72,17.55,4.54,18.58,5.5l1.65,1.53-.42,2.22c-1.2,6.32,4.75,9.75,5.2,10a84.14,84.14,0,0,0,19.17,5.62c2.5.45,5.19.84,8.07,1.13C424.92,266.1,430.72,255.08,428.75,246.85ZM320.36,214c-4.53-1.13.18,5.45-5.12,6.35a7.82,7.82,0,0,1-4.94-.6c.1.57.19,1.13.28,1.7,1.13-.3,2.29-.56,3.44-.81,2.2-.46,4.77-.91,7.67-1.34C322.56,217.68,323.62,214.77,320.36,214Z"/><path class="cls-2" d="M166.14,433.9c-2.74.36-5.31.56-7.75.66a64.7,64.7,0,0,1-10.28-.38,107.21,107.21,0,0,0-.21,13.72A68.29,68.29,0,0,0,171.62,442a63.4,63.4,0,0,0,6.23-3.28c.86-.51,1.7-1.06,2.53-1.61A30.79,30.79,0,0,0,166.14,433.9ZM107.2,278.38c-.16-3.74-.14-7.48,0-11.06A38.67,38.67,0,0,1,82.67,253a38,38,0,0,1,1.73-49.57c7.69-8.57,17.17-13.16,27.4-13.26h.36a35.41,35.41,0,0,1,5,.37c.77-4.23,1.61-8.73,2.49-13.11a144.08,144.08,0,0,1-33.33-15.78C71.2,151.83,59.27,139.43,51,125.1A192.75,192.75,0,0,0,20.87,228.37,190.57,190.57,0,0,0,47,325a98.23,98.23,0,0,1,24.83-22.87c10.59-14.81,23.09-19.38,31.29-20.69A31.79,31.79,0,0,1,107.2,278.38ZM215,307.61c3.37,2.88,7.6,3.67,12.95,2.41,6.09-1.44,9.42-5.86,11.19-11a25.84,25.84,0,0,0-13.64-9.63,38.62,38.62,0,0,1,.79,12,19.67,19.67,0,0,0-6.18-10.89,27.67,27.67,0,0,1-11.56,6.23C210.15,301.56,212.33,305.29,215,307.61Zm102.79-128.7a29.87,29.87,0,0,1,13.61,3.31c.71-1,1.44-2,2.19-3,9.46-12.37,26-27.29,53.16-34A192,192,0,0,0,365,110.14a42.08,42.08,0,0,1-7.3,26.29C348,151,329.5,160.87,310,163.05c1.61,5.26,3.12,10.62,4.55,16A30.36,30.36,0,0,1,317.82,178.91Zm-17.45-118,1.48-.19c1.7-.2,3.39-.34,5.06-.41-2.38-1.33-4.8-2.62-7.25-3.85.28,1.43.51,2.89.7,4.38C300.36,60.88,300.37,60.91,300.37,60.93ZM185.13,377.38q-1.8.89-3.78,2c-1.59.9-3.25,1.93-4.94,3.11a45.77,45.77,0,0,1,8.59,7.77,13.61,13.61,0,0,1-1.08-3.67,17.21,17.21,0,0,1,.36-6.33A25.67,25.67,0,0,1,185.13,377.38Zm148-75.17a34.77,34.77,0,0,0-7,5.43c-9.76,9.53-24.28,26.77-24.28,26.77l22.29-34.33c-3.42-4.85-7-5.46-8.89-5.39a28.7,28.7,0,0,1-3.83,8.26c-19.79,28.81-42.79,45.83-60,55.46,1.07,1.39,2.29,3.09,3.52,5,7.39-2.69,18.56-7.06,23.83-10.65l1-.69c-.29.23-.62.46-1,.69-2.85,2-11.7,8.22-21.79,14l.11.19a55,55,0,0,1,5.49,2c44.8-16,78.17-46.27,87-54.81C343.62,305.87,337.32,303.09,333.14,302.21Zm-38.62,114.5a62.67,62.67,0,0,0-17-28.32,61.74,61.74,0,0,0-15.34-10.64q-.28-.15-.57-.27l.12.42a23.08,23.08,0,0,1,.71,8.05,15.59,15.59,0,0,1-3.35,8.22l17,24.6-22.61-20.15a19,19,0,0,1-7.7,1.43,36.1,36.1,0,0,1-6.43-.63c3.43,12,8.87,21.95,16.3,29.67l7.71,6.69a62,62,0,0,0,10.7,6.24,68.39,68.39,0,0,0,23.72,5.88,101,101,0,0,0-1.33-23Zm52.69-154.95a24.83,24.83,0,0,1-8.26-9.35l-1.62-.14c-2.77-.25-5.43-.51-7.94-.78-.61.3-1.24.59-1.87.86,1,9.94,1.51,18.4,1.8,24.9a31.18,31.18,0,0,1,6.06,4.21,45,45,0,0,1,24,12.22,90.06,90.06,0,0,1,12.37-26c-.28-.6-.55-1.22-.79-1.84C363.53,267.33,354.66,266.83,347.21,261.76ZM192.27,397.47c-.35-.18-.68-.36-1-.55l-1,.71A67,67,0,0,1,198,418.77a76.46,76.46,0,0,0,8.34-19.29C201.41,400,196.4,399.59,192.27,397.47Zm2.14-35a131.5,131.5,0,0,1-47.17-31.67c-16-16.63-23.34-32.1-23.65-32.75l-.07-.16c-.42-1-.79-2.06-1.13-3.16-1.82.11-4.61,1-7.37,4.37L138,334.41s-14.52-17.24-24.27-26.77a34.87,34.87,0,0,0-7.3-5.62c-4.12.63-11,3.12-17.53,12.13,1.58,1.52,3.94,3.73,7,6.43,12.84-.17,26.33,6.71,38,19.89a142.84,142.84,0,0,1,10.27,14.09,218.22,218.22,0,0,0,36.36,16c1.09-.56,2.13-1.05,3.12-1.5-10.08-5.78-18.93-12-21.77-14-.34-.23-.67-.46-1-.69l1,.69c6.14,4.18,20.26,9.42,27.12,11.83,1-.35,1.89-.64,2.55-.83C192.51,364.73,193.5,363.52,194.41,362.45ZM251,390.69a7.55,7.55,0,0,0,3.28-5.59,14.82,14.82,0,0,0-.39-4.75,33.25,33.25,0,0,0-3-7.63,68.6,68.6,0,0,0-6.84-10.45,109.54,109.54,0,0,1-18.59,7.39l-.75.2-.77-.09a122.62,122.62,0,0,1-21.17-4.44,60.15,60.15,0,0,0-7.34,9.46,25,25,0,0,0-3.31,7.59,8.88,8.88,0,0,0-.15,3.05c.18,1.26.8,3.13,4,4.78,6.1,3.13,17.67-.15,23.91-2.53l4.54-12,4,11.82C236.15,390.78,247,393.57,251,390.69Z"/><path class="cls-3" d="M137.91,153.36l1.9,8a140.14,140.14,0,0,1,21.69-10.24l-3.6-6.43C148.78,148.29,141.64,151.57,137.91,153.36Zm228,46.5c13.61-5.18,15.31-10.17,9.7-12.44-4.73-1.91,6.42-14.38,17.11-22.22-17.85,4.15-32.11,13.07-42.53,26.7a75.67,75.67,0,0,0-12,23.22c0,.75,0,1.51-.08,2.27,0,.51-.09,1-.16,1.55a77.42,77.42,0,0,0,9.73,1.72C350.1,214.93,355.93,203.66,365.92,199.86ZM60,348.8l3.91-11.5a74.4,74.4,0,0,0-10.86,19c-.15.38-.3.75-.45,1.14.65,2.71,3.2,11.29,11.42,21.29,8.79,10.69,26,25.12,58.27,34.65,0-.37,0-.76.06-1.16a49,49,0,0,1,4.41-17.73C80.21,390.78,60,348.8,60,348.8ZM384.71,180.62c-2,7.26,21.13,4.38,18.41,10.13-2.52,5.3-26.14,12.39-29.53,32.12l6.16.31c11,.5,23.79.81,38.13.81h.48l8.17,0c10.88-.1,20.75-.37,29.48-.77,22.5-1,37.46-2.85,42.53-4.46-.09-.38-.21-.82-.33-1.28a75.23,75.23,0,0,0-12.87-25.82c-14.94-19.34-37.64-29.15-67.46-29.15l-1.63,0q-4.38,0-8.56.39c-2,.17-4,.4-6,.67C396.43,167.34,386.19,175.26,384.71,180.62Zm-48.46,203.2c-.87,2.45-3.74,8.25-6.23,13.12a206.69,206.69,0,0,0,26.82-22.19c.18-.18.35-.36.53-.53-2.38-.26-5.7-.68-9.15-1.31-6.58-1.19-19.73,6.41-19.73,6.41S337.89,379.26,336.25,383.82Zm81.63-149.43h.44q4.15,0,8.17,0c46.76-.31,79.62-3.13,93.29-5.87-4.15-.84-10.07-1.68-17.6-2.45-4.09,1.54-11.28,2.76-23.68,3.87-14.15,1.26-32.35,2-52,2.21l-8.17,0h-.49c-22.88,0-44.4-.8-60.62-2.25-10.39-.93-17.13-1.94-21.44-3.15-.83-.23-1.58-.47-2.24-.72q-3.76.39-7,.79c-4.29.54-7.84,1.1-10.61,1.66,2.23.45,5,.9,8.22,1.34,2.79.38,5.95.75,9.46,1.11C352.45,232.87,381.28,234.39,417.88,234.39ZM423,278.64c.77,13.14,1.17,54.27-22.56,70.16l-43.45,6.48s-10.08,1.36-28.45,24c0,0,9.53-9.07,13.55-11.66s27,0,27.26,0c1.81.12,3.57.23,5.26.31,22.89,1.13,34.9-1.32,37.92-2.06C445.16,337,438.56,291.35,436,279.05A112.47,112.47,0,0,1,423,278.64ZM112.05,11.31c-33.45,8.76-53.41,32-53.41,62.09q0,4,.3,7.77a87.94,87.94,0,0,0,1.48,10.59c4.37,21.5,16.77,39,37,52.23a124.57,124.57,0,0,0,33.4,15l-2.38-10,2.84-1.46c.79-.41,8.41-4.29,19.82-8.95-29.38-14.2-72-54.67-40.94-97.81,20.34-28.25,48-28.1,66-24C156.85,7.15,132.52,5.94,112.05,11.31Zm97.06,404a73.7,73.7,0,0,1-9.65,15.4c0,.82.08,1.61.11,2.37,4.53.3,9.11.47,13.72.47a206.24,206.24,0,0,0,33.08-2.68,71,71,0,0,1-6.89-10C222.71,419.47,213.34,416.8,209.11,415.26Z"/><path class="cls-4" d="M426.11,242.53c-2.15,0-4.32,0-6.49,0l9.13,4.3c2,8.23-3.83,19.25-6.36,23.53h.08c3.31.33,6.85.53,10.59.53,2.32-1.92,8.52-8.16,9.38-20.57l.23-3.26,3.23-.49a46.56,46.56,0,0,0,13.27-4.74C448.69,242.23,437.57,242.46,426.11,242.53ZM131,294.64a134.22,134.22,0,0,0,44.76,49.28c-9.59-12.85-34.88-47.5-38.06-59.72-3.93-15.12,3.91-68.35,3.91-68.35,11.45-5.68,10.91-21.47,10.91-21.47,11.68-9.29,12.09-28,11.74-35.47-1.66.63-3.25,1.26-4.73,1.88,0,7.57-1.3,22.91-12.15,29.35A21.83,21.83,0,0,1,138.63,211l-5.44,43.46s-2.72-18.76-3-32.93L127,218.11a27.91,27.91,0,0,0-5.82-4.41c2.34,5.4,6.41,17.67-1,24.83a21.11,21.11,0,0,1-15.84,6.08c4.89,2.74,11.66,3.39,19.66-.9l7.32-3.92L130,248C129.9,248.29,124.81,279.55,131,294.64ZM191,428a75.11,75.11,0,0,0-2.94-15.06c-3.4-.71-10-1.31-22.23-.25-19.1,1.65-29.49-12-31.59-15.14a34.6,34.6,0,0,0-2.1,5.35A41.87,41.87,0,0,0,130.39,416q0,.79.06,1.32a24.33,24.33,0,0,0,10.79,7,38.71,38.71,0,0,0,7.93,1.77,57.41,57.41,0,0,0,10.36.27q2.68-.16,5.65-.55h.15c.54,0,10.56-.88,22.09,5.86l.5.29c1.15.69,2.31,1.45,3.48,2.3,0-.61,0-1.25-.07-1.91C191.27,431,191.17,429.52,191,428Z"/><path class="cls-5" d="M423,278.64l-2.26-.2c-2.9-.32-5.64-.73-8.17-1.19a97.41,97.41,0,0,1-18.08-5.05c-13.88,16.7-16,29.95-17.12,37.22-.16,1-.31,2-.52,2.93h0s-1.81,12.75-1.13,22.05l-6.2-15.6c-3.9.1-10,0-12.94,0a262.62,262.62,0,0,1-37.7,30.46,255.48,255.48,0,0,1-36.25,20.37l30.6,1.79v36.08q8.7-4.87,16.84-10.55c2.49-4.87,5.36-10.67,6.23-13.12,1.64-4.56-7.76-4.5-7.76-4.5,18.37-22.68,28.45-24,28.45-24l43.45-6.48C424.12,332.91,423.72,291.78,423,278.64ZM127.77,345.89c-.93-1-1.86-2-2.8-3a52.36,52.36,0,0,0-15.48-11.11A30.82,30.82,0,0,0,93,329a25.31,25.31,0,0,0-6.52,1.71A24.64,24.64,0,0,0,74,343s-2-12.41,7.9-19.29a35.77,35.77,0,0,1,3.67-1.44c-1-.95-1.9-1.79-2.61-2.49a79.47,79.47,0,0,0-19,17.49L60,348.8s20.21,42,66.76,45.67a40.56,40.56,0,0,1,20.4-19.92c-2.1-3.43-5.31-8.59-8.66-13.72A152.84,152.84,0,0,0,127.77,345.89ZM157.9,144.71l3.6,6.43a188.52,188.52,0,0,1,60-11.8c36.63-1.3,58.48,4.13,65.5,6.25l1.46-5.14c-8.38-3.19-32.35-11.1-64-11.1C201.85,129.35,176,137.61,157.9,144.71Zm245.22,46c2.72-5.75-20.42-2.87-18.41-10.13,1.48-5.36,11.72-13.28,17-17.07q-4.63.63-9,1.65C382,173,370.89,185.51,375.62,187.42c5.61,2.27,3.91,7.26-9.7,12.44-10,3.8-15.82,15.07-18.22,20.8,6.39.83,15.13,1.61,25.89,2.21C377,203.14,400.6,196.05,403.12,190.75Zm-108-56.42,3.2,1.46-1.87,6.53c16.88,1.94,35.84-5.38,43.88-17.46,5.67-8.5,5.05-18.17-1.78-27.95C318.61,68.39,286,87,284.66,87.81l-8.51,5,2.49-9.54c.38-1.46,8.95-36-19.53-47.81-29.31-12.11-49.75,5.75-50.6,6.52l-3.79,3.39s-9.53,7.49-16.49,5.67a24.3,24.3,0,0,0,12.56-12.49,57.8,57.8,0,0,0-12.22-13.79,64.82,64.82,0,0,0-10.18-6.82q-1.09-.59-2.22-1.14c-18-4.14-45.63-4.29-66,24-31.06,43.14,11.56,83.61,40.94,97.81,18.69-7.63,47.57-17.36,73.31-17.36C265.8,121.19,293.91,133.8,295.09,134.33Zm-12.3,247.83A71.08,71.08,0,0,1,302,413.33l2.16-1.07V380l-25.6-1.5C279.93,379.6,281.36,380.82,282.79,382.16Zm-126.14-7.72,0,0a54.74,54.74,0,0,1,11.91,3.64c.95-.74,1.89-1.43,2.83-2.09-6.48-2.38-12.68-5-18.55-7.79C155,371.69,156.47,374.13,156.65,374.44Zm67.76,20.24a75.45,75.45,0,0,1-9.19,3.13,91.27,91.27,0,0,1-6.11,17.45c4.23,1.54,13.6,4.21,30.37,5.57A88.51,88.51,0,0,1,230.27,397C227.9,396.16,225.86,395.32,224.41,394.68Z"/><path class="cls-6" d="M207,329.27c21.5,11.79,32.8-1.82,32.8-1.82C229.3,335.32,207,329.27,207,329.27Zm53.71-120.53c4,0,7.25-5.48,7.25-12.24s-3.25-12.25-7.25-12.25-7.26,5.48-7.26,12.25S256.66,208.74,260.67,208.74ZM521.74,220.6c-3.89-.82-8.88-1.58-14.9-2.27a81.74,81.74,0,0,0-14.79-31.39c-11.39-14.89-33.49-32.64-74.17-32.64-1.51,0-3,0-4.44.08A213.65,213.65,0,0,0,213.29,15.08a215.81,215.81,0,0,0-22.38,1.17C168.43-.3,136.24-3.47,110,3.41,73.27,13,50.47,39.84,50.47,73.4a101.2,101.2,0,0,0,1.22,15.75,213.38,213.38,0,0,0-7.13,269.74c1.57,7.34,12.85,45.3,79.47,63.45a32.6,32.6,0,0,0,16.07,10.19,114.65,114.65,0,0,0-.1,19.85l.28,3.58,3.59.18c.1,0,.56,0,1.33,0a74.87,74.87,0,0,0,29.46-6.55,68.56,68.56,0,0,0,13.21-7.81l11.6-.59c4.58.29,9.19.46,13.82.46A215.5,215.5,0,0,0,253.17,438,68.3,68.3,0,0,0,271,449.61a74.94,74.94,0,0,0,29.47,6.55c.77,0,1.23,0,1.33,0l3.58-.18.28-3.58a110,110,0,0,0-1.62-30.87,213.54,213.54,0,0,0,60.05-42.32q1.72-1.71,3.4-3.47c7,.51,13.13.71,18.51.71,19.84,0,29.08-2.75,29.64-2.92l.82-.26.65-.56c17.67-15.26,27.78-37.25,29.23-63.57a120.4,120.4,0,0,0-3.17-35.38l-.37-1.34A38,38,0,0,0,450.27,254c5.15-1.28,15.53-4.73,23-12.75,8.7-.44,16.8-1,24.07-1.64a221.2,221.2,0,0,0,24.44-3.25c5.82-1.23,12-3,12-7.88S527.56,221.83,521.74,220.6ZM416.25,162.49l1.63,0c29.82,0,52.52,9.81,67.46,29.15a75.23,75.23,0,0,1,12.87,25.82c.12.46.24.9.33,1.28-5.07,1.61-20,3.43-42.53,4.46-8.73.4-18.6.67-29.48.77l-8.17,0h-.48c-14.34,0-27.13-.31-38.13-.81l-6.16-.31c-10.76-.6-19.5-1.38-25.89-2.21a77.42,77.42,0,0,1-9.73-1.72c.07-.52.12-1,.16-1.55.06-.76.09-1.52.08-2.27a75.67,75.67,0,0,1,12-23.22c10.42-13.63,24.68-22.55,42.53-26.7q4.33-1,9-1.65c2-.27,3.95-.5,6-.67Q411.88,162.54,416.25,162.49ZM404.82,155c-32.45,3.32-51,18.77-61.11,32a83.67,83.67,0,0,0-9.12,15,23,23,0,0,0-5.11-5.91c-8.74-7.12-17.85-4.39-23.93-.21A404.36,404.36,0,0,0,293.36,153l.79-2.77c20.3,2.86,43-5.88,52.94-20.88,7.58-11.37,6.92-24.57-1.87-37.15C332.5,74,315.43,71.91,303.36,73.35a64.12,64.12,0,0,0-15.49,4,65.7,65.7,0,0,0-.11-14.87c-1.82-14.39-8.73-25.3-20.08-31.87A206,206,0,0,1,404.82,155Zm-84.91,56c-3.83-.54-7.74,1.92-10.42,4.17-.62-3.38-1.29-6.84-2-10.34,2.44-2.4,9.66-8.27,16.84-2.41a15.71,15.71,0,0,1,5.67,11.7c-.51,1.8-.86,3.25-1.07,4.24-2,.24-4,.48-5.77.74C325.14,216.67,325.2,211.71,319.91,211Zm67.47,57c-14.62,18-17,32.85-18.12,40.2-.14.83-.28,1.77-.43,2.52-3.52.07-8.81,0-11.74,0-10.22-15.06-22.27-16.93-27.52-16.95-4.43-5.36-9.31-6.85-12.87-7.09.09-1.42.14-2.85.09-4.34-.26-8.47-1-22.41-3.14-39.72a23,23,0,0,0,13-4.15q5.33.66,11.81,1.24c3.25.29,6.68.56,10.24.81.31,5.92,3.16,9.14,5.65,10.83,5.59,3.79,13.84,3,19.14.57,2-.89,5.56.87,8.15,2.79A17.36,17.36,0,0,0,387.38,267.94ZM255,363.39c-1.23-1.89-2.45-3.59-3.52-5,17.24-9.63,40.24-26.65,60-55.46a28.7,28.7,0,0,0,3.83-8.26c1.87-.07,5.47.54,8.89,5.39l-22.29,34.33s14.52-17.24,24.28-26.77a34.77,34.77,0,0,1,7-5.43c4.18.88,10.48,3.66,16.45,11.94-8.83,8.54-42.2,38.77-87,54.81a55,55,0,0,0-5.49-2l-.11-.19c10.09-5.78,18.94-12,21.79-14C273.51,356.33,262.34,360.7,255,363.39Zm-71,23.21a13.61,13.61,0,0,0,1.08,3.67,45.77,45.77,0,0,0-8.59-7.77c1.69-1.18,3.35-2.21,4.94-3.11q2-1.12,3.78-2a25.67,25.67,0,0,0-.85,2.89A17.21,17.21,0,0,0,183.92,386.6Zm-.3-17.55c-1,.45-2,.94-3.12,1.5a218.22,218.22,0,0,1-36.36-16,142.84,142.84,0,0,0-10.27-14.09c-11.69-13.18-25.18-20.06-38-19.89-3.06-2.7-5.42-4.91-7-6.43,6.5-9,13.41-11.5,17.53-12.13a34.87,34.87,0,0,1,7.3,5.62c9.75,9.53,24.27,26.77,24.27,26.77L115,299.08c2.76-3.42,5.55-4.26,7.37-4.37.34,1.1.71,2.16,1.13,3.16l.07.16c.31.65,7.64,16.12,23.65,32.75a131.5,131.5,0,0,0,47.17,31.67c-.91,1.07-1.9,2.28-2.89,3.61-.66.19-1.54.48-2.55.83-6.86-2.41-21-7.65-27.12-11.83C164.69,357.09,173.54,363.27,183.62,369.05Zm-12.21,7c-.94.66-1.88,1.35-2.83,2.09a54.74,54.74,0,0,0-11.91-3.64l0,0c-.18-.31-1.64-2.75-3.79-6.21C158.73,371,164.93,373.64,171.41,376ZM138.63,211a21.83,21.83,0,0,0,8.77-20.87c10.85-6.44,12.19-21.78,12.15-29.35,1.48-.62,3.07-1.25,4.73-1.88a180.31,180.31,0,0,1,57.5-11.41c22.6-.8,39.43,1.08,50.28,3a34.71,34.71,0,0,0,13.1,25.1,20.1,20.1,0,0,0,11.9,19.77c2.45,10.5,4.39,20.6,5.92,30.06a5,5,0,0,0-1,3,5.27,5.27,0,0,0,2.1,4.19,448,448,0,0,1,4.54,49.83c.14,4.43-.43,10.77-3.9,15.81-32.37,47.12-74.66,61.41-80.62,63.24a114.12,114.12,0,0,1-48.33-17.64A134.22,134.22,0,0,1,131,294.64c-6.21-15.09-1.12-46.35-1.06-46.66l1.36-8.19L124,243.71c-8,4.29-14.77,3.64-19.66.9a17.66,17.66,0,0,1-5.26-4.5,17.27,17.27,0,0,1,.85-22.74c3.72-4.15,7.77-6.28,12-6.34h.19a18.5,18.5,0,0,1,9,2.67,27.91,27.91,0,0,1,5.82,4.41l3.21,3.43c.28,14.17,3,32.93,3,32.93Zm-.72-57.65c3.73-1.79,10.87-5.07,20-8.65,18.08-7.1,43.95-15.36,66.55-15.36,31.66,0,55.63,7.91,64,11.1L287,145.59c-7-2.12-28.87-7.55-65.5-6.25a188.52,188.52,0,0,0-60,11.8,140.14,140.14,0,0,0-21.69,10.24Zm54.24,229a25,25,0,0,1,3.31-7.59,60.15,60.15,0,0,1,7.34-9.46A122.62,122.62,0,0,0,224,369.77l.77.09.75-.2a109.54,109.54,0,0,0,18.59-7.39,68.6,68.6,0,0,1,6.84,10.45,33.25,33.25,0,0,1,3,7.63,14.82,14.82,0,0,1,.39,4.75,7.55,7.55,0,0,1-3.28,5.59c-4,2.88-14.86.09-22.57-3.18l-4-11.82-4.54,12c-6.24,2.38-17.81,5.66-23.91,2.53-3.2-1.65-3.82-3.52-4-4.78A8.88,8.88,0,0,1,192.15,382.38Zm118.43-161c-.09-.57-.18-1.13-.28-1.7a7.82,7.82,0,0,0,4.94.6c5.3-.9.59-7.48,5.12-6.35,3.26.81,2.2,3.72,1.33,5.3-2.9.43-5.47.88-7.67,1.34C312.87,220.85,311.71,221.11,310.58,221.41ZM213.29,23.25c5.39,0,10.74.21,16,.62a57.73,57.73,0,0,0-22.41,9.07,64.36,64.36,0,0,0-7.43-9.21C204,23.42,208.64,23.25,213.29,23.25ZM112.05,11.31c20.47-5.37,44.8-4.16,64.12,5.47q1.13.55,2.22,1.14a64.82,64.82,0,0,1,10.18,6.82,57.8,57.8,0,0,1,12.22,13.79A24.3,24.3,0,0,1,188.23,51c7,1.82,16.49-5.67,16.49-5.67L208.51,42c.85-.77,21.29-18.63,50.6-6.52C287.59,47.21,279,81.79,278.64,83.25l-2.49,9.54,8.51-5c1.38-.81,33.95-19.42,53.86,9.1,6.83,9.78,7.45,19.45,1.78,28-8,12.08-27,19.4-43.88,17.46l1.87-6.53-3.2-1.46c-1.18-.53-29.29-13.14-70.64-13.14-25.74,0-54.62,9.73-73.31,17.36-11.41,4.66-19,8.54-19.82,8.95L128.48,149l2.38,10a124.57,124.57,0,0,1-33.4-15c-20.27-13.21-32.67-30.73-37-52.23a87.94,87.94,0,0,1-1.48-10.59q-.3-3.81-.3-7.77C58.64,43.28,78.6,20.07,112.05,11.31ZM8.17,228.37a204.15,204.15,0,0,1,45.75-129c5.88,21,19.18,38.54,39.32,51.6A131.67,131.67,0,0,0,133,168l.86,3.63c-2.64,11.94-5.32,27.32-6.79,36.1a27.7,27.7,0,0,0-14.9-4.87h-.23c-6.67.07-12.75,3.11-18.07,9a25.48,25.48,0,0,0-1.2,33.23c5.34,6.8,15.53,12.37,28.28,8.63-.92,8-1.92,21.42-.27,32.91-3.44.46-7.81,2.15-11.8,7-5.36,0-17.8,2-28.16,17.92a85,85,0,0,0-33.37,37.2A204,204,0,0,1,8.17,228.37ZM122.35,412.2c0,.4,0,.79-.06,1.16C90,403.83,72.81,389.4,64,378.71c-8.22-10-10.77-18.58-11.42-21.29.15-.39.3-.76.45-1.14a74.4,74.4,0,0,1,10.86-19,79.47,79.47,0,0,1,19-17.49c.71.7,1.59,1.54,2.61,2.49a35.77,35.77,0,0,0-3.67,1.44C72,330.62,74,343,74,343a24.64,24.64,0,0,1,12.47-12.35A25.31,25.31,0,0,1,93,329a30.82,30.82,0,0,1,16.52,2.84A52.36,52.36,0,0,1,125,342.92c.94.94,1.87,1.93,2.8,3a152.84,152.84,0,0,1,10.73,14.94c3.35,5.13,6.56,10.29,8.66,13.72a40.56,40.56,0,0,0-20.4,19.92A49,49,0,0,0,122.35,412.2Zm55.5,26.54a63.4,63.4,0,0,1-6.23,3.28,68.29,68.29,0,0,1-23.72,5.88,107.21,107.21,0,0,1,.21-13.72,64.7,64.7,0,0,0,10.28.38c2.44-.1,5-.3,7.75-.66a30.79,30.79,0,0,1,14.24,3.23C179.55,437.68,178.71,438.23,177.85,438.74Zm10.07-6.81-.5-.29c-11.53-6.74-21.55-5.91-22.09-5.86h-.15q-3,.39-5.65.55a57.41,57.41,0,0,1-10.36-.27,38.71,38.71,0,0,1-7.93-1.77,24.33,24.33,0,0,1-10.79-7q0-.53-.06-1.32a41.87,41.87,0,0,1,1.77-13.08,34.6,34.6,0,0,1,2.1-5.35,32.83,32.83,0,0,1,16.58-15.69,51.65,51.65,0,0,1,10.83,2.34,41.17,41.17,0,0,1,8,3.67,37.63,37.63,0,0,1,9.85,8.52,49.05,49.05,0,0,1,8.58,16.55A75.11,75.11,0,0,1,191,428c.15,1.52.25,3,.31,4.32,0,.66,0,1.3.07,1.91C190.23,433.38,189.07,432.62,187.92,431.93Zm2.35-34.3,1-.71c.32.19.65.37,1,.55,4.13,2.12,9.14,2.48,14,2A76.46,76.46,0,0,1,198,418.77,67,67,0,0,0,190.27,397.63Zm23,35.87c-4.61,0-9.19-.17-13.72-.47,0-.76-.07-1.55-.11-2.37a73.7,73.7,0,0,0,9.65-15.4,91.27,91.27,0,0,0,6.11-17.45,75.45,75.45,0,0,0,9.19-3.13c1.45.64,3.49,1.48,5.86,2.3a88.51,88.51,0,0,0,9.21,23.85,71,71,0,0,0,6.89,10A206.24,206.24,0,0,1,213.29,433.5Zm84.49,14.4A68.39,68.39,0,0,1,274.06,442a62,62,0,0,1-10.7-6.24l-7.71-6.69c-7.43-7.72-12.87-17.64-16.3-29.67a36.1,36.1,0,0,0,6.43.63,19,19,0,0,0,7.7-1.43l22.61,20.15-17-24.6a15.59,15.59,0,0,0,3.35-8.22,23.08,23.08,0,0,0-.71-8.05l-.12-.42q.29.12.57.27a61.74,61.74,0,0,1,15.34,10.64,62.67,62.67,0,0,1,17,28.32l1.93,8.19A101,101,0,0,1,297.78,447.9Zm6.33-35.64L302,413.33a71.08,71.08,0,0,0-19.16-31.17c-1.43-1.34-2.86-2.56-4.28-3.69l25.6,1.5Zm108.37-46.35c-3,.74-15,3.19-37.92,2.06-1.69-.08-3.45-.19-5.26-.31-.3,0-23.25-2.58-27.26,0s-13.55,11.66-13.55,11.66,13.15-7.6,19.73-6.41c3.45.63,6.77,1,9.15,1.31-.18.17-.35.35-.53.53A206.69,206.69,0,0,1,330,396.94q-8.14,5.67-16.84,10.55V371.41l-30.6-1.79a255.48,255.48,0,0,0,36.25-20.37,262.62,262.62,0,0,0,37.7-30.46c3,0,9,.12,12.94,0l6.2,15.6c-.68-9.3,1.13-22.05,1.13-22.05h0c.21-1,.36-2,.52-2.93,1.15-7.27,3.24-20.52,17.12-37.22a97.41,97.41,0,0,0,18.08,5.05c2.53.46,5.27.87,8.17,1.19l2.26.2a112.47,112.47,0,0,0,13.09.41C438.56,291.35,445.16,337,412.48,365.91ZM445.9,246.6l-3.23.49-.23,3.26c-.86,12.41-7.06,18.65-9.38,20.57-3.74,0-7.28-.2-10.59-.53h-.08c-2.88-.29-5.57-.68-8.07-1.13a84.14,84.14,0,0,1-19.17-5.62c-.45-.25-6.4-3.68-5.2-10l.42-2.22-1.65-1.53c-1-1-10.3-9.22-18.58-5.5-3.29,1.49-8.51,2-11.2.12a4.67,4.67,0,0,1-2-3.55c18,1.05,39,1.61,60.94,1.61h1.74c2.17,0,4.34,0,6.49,0,11.46-.07,22.58-.3,33.06-.67A46.56,46.56,0,0,1,445.9,246.6Zm-19.41-12.24q-4,0-8.17,0h-.44c-36.6,0-65.43-1.52-84.22-3.45-3.51-.36-6.67-.73-9.46-1.11-3.24-.44-6-.89-8.22-1.34,2.77-.56,6.32-1.12,10.61-1.66q3.23-.41,7-.79c.66.25,1.41.49,2.24.72,4.31,1.21,11.05,2.22,21.44,3.15,16.22,1.45,37.74,2.25,60.62,2.25h.49l8.17,0c19.61-.18,37.81-1,52-2.21,12.4-1.11,19.59-2.33,23.68-3.87,7.53.77,13.45,1.61,17.6,2.45C506.11,231.23,473.25,234.05,426.49,234.36Zm-317.57-10.7c-6.81,1-4.77,8.9-1.14,9.36,0,0-3.85-5.22.68-6.36s-.17,5.45,5.13,6.36,6.44-2.73,9.16-1.82C122.75,231.2,115.72,222.7,108.92,223.66Zm72.36-14.92c4,0,7.25-5.48,7.25-12.24s-3.25-12.25-7.25-12.25S174,189.73,174,196.5,177.27,208.74,181.28,208.74ZM161.85,355.06l-1-.69C161.18,354.6,161.51,354.83,161.85,355.06Zm11-64.2A44.57,44.57,0,0,0,198,285.53c.14,1.43.32,2.88.55,4.33l-5.51,7.35a32.38,32.38,0,0,0,7.27.67c1.82,6.22,4.75,12,9.39,15.93a20.57,20.57,0,0,0,13.7,4.94,28,28,0,0,0,6.41-.78c11-2.6,16.24-11.4,18.28-20.84a27.82,27.82,0,0,0,12.55.08l-11.36-16.94s11.9,12.4,29.47,10.59,22.72-13.31,22.72-13.31-8.12,5.44-18.66-13.42c-7.65-13.68-23.25-18.58-31.25-20.25a14.12,14.12,0,0,0,3.18-9.39c-.42-14.62-11.73-26.44-15.88-30.3v-5l-8.17-21.32v30l1.49,1.22c.14.12,14,11.69,14.39,25.55.09,3-1.8,5.4-5.62,7.13-9.26,4.2-26.43,2.52-36.26-6.61L192.16,226s2,9.33,7,15.18a32.67,32.67,0,0,0,3.42,2.78c-9.12,1.78-26,6.77-34.32,20.13C156.48,283,147.4,277.55,147.4,277.55S153.15,289,172.81,290.86Zm47.33-.31a19.67,19.67,0,0,1,6.18,10.89,38.62,38.62,0,0,0-.79-12A25.84,25.84,0,0,1,239.17,299c-1.77,5.13-5.1,9.55-11.19,11-5.35,1.26-9.58.47-12.95-2.41-2.7-2.32-4.88-6.05-6.45-10.83A27.67,27.67,0,0,0,220.14,290.55Zm58.64,62.19c.34-.23.67-.46,1-.69Z"/><text class="cls-7" transform="translate(533.15 329.91)"><tspan class="cls-8">F</tspan><tspan class="cls-9" x="99.47" y="0">o</tspan><tspan x="191.88" y="0">odota</tspan></text><path class="cls-2" d="M955.05,344.39s-38.16,23.09-140.93,16.48c-99.74-6.41-240.71-29.91-308.37-8.23a21.62,21.62,0,0,0-9.56,6.16l-28.25,31.72c-5.08,5.71,1,14.12,9,12.55,40.55-7.86,123.44-22,191.53-21C859.1,384.75,889.84,384,955.05,344.39Z"/></svg>